<svg width="276" height="272" viewBox="0 0 276 272" fill="none" xmlns="http://www.w3.org/2000/svg">
<path fill-rule="evenodd" clip-rule="evenodd" d="M65.6529 5.18247C114.403 -1.7275 160.873 -1.72747 209.632 5.18247C237.522 9.58247 266.863 37.5527 270.613 64.4627C276.843 111.763 276.843 159.682 270.613 206.982C266.863 233.882 237.522 261.863 209.632 266.263C160.883 273.172 114.413 273.173 65.6529 266.263C37.7629 261.863 8.42246 233.892 4.67246 206.982C-1.55749 159.682 -1.55749 111.763 4.67246 64.4627C8.42246 37.5627 37.7629 9.58247 65.6529 5.18247ZM59.2633 88.8827C51.4982 88.8827 45.2028 95.1772 45.2027 102.942V195.312C45.2027 203.077 51.4982 209.373 59.2633 209.373C67.0282 209.373 73.3229 203.077 73.3229 195.312V102.942C73.3227 95.1773 67.0281 88.8829 59.2633 88.8827ZM166.363 62.1122C158.598 62.1122 152.302 68.4076 152.302 76.1727V169.883C152.302 177.648 158.598 183.942 166.363 183.942C174.128 183.942 180.422 177.648 180.422 169.883V76.1727C180.422 68.4076 174.128 62.1122 166.363 62.1122ZM219.922 86.202C212.157 86.2022 205.863 92.4975 205.863 100.263V169.872C205.863 177.637 212.157 183.932 219.922 183.932C227.688 183.932 233.983 177.637 233.983 169.872V100.263C233.983 92.4974 227.688 86.202 219.922 86.202ZM112.813 88.8827C105.048 88.8827 98.7526 95.1772 98.7525 102.942V168.543C98.7528 176.308 105.048 182.602 112.813 182.602C120.578 182.602 126.872 176.308 126.873 168.543V102.942C126.873 95.1773 120.578 88.8828 112.813 88.8827Z" fill="#29103C"/>
</svg>
