<svg viewBox="0 0 275 275" xmlns="http://www.w3.org/2000/svg">
<rect width="275" height="275" fill="white"/>
<path fill-rule="evenodd" clip-rule="evenodd" d="M65.5849 5.25034C114.284 -1.75013 160.706 -1.7501 209.415 5.25034C237.276 9.70796 266.586 38.0446 270.332 65.307C276.556 113.226 276.556 161.774 270.332 209.693C266.586 236.945 237.276 265.292 209.415 269.75C160.716 276.75 114.294 276.75 65.5849 269.75C37.7238 265.292 8.41373 236.955 4.66762 209.693C-1.55588 161.774 -1.55587 113.226 4.66762 65.307C8.41373 38.0547 37.7238 9.70796 65.5849 5.25034ZM59.2018 90.0467C51.4448 90.0467 45.156 96.4237 45.1559 104.29V197.87C45.1559 205.737 51.4448 212.115 59.2018 212.115C66.9587 212.115 73.2468 205.737 73.2468 197.87V104.29C73.2467 96.4238 66.9587 90.047 59.2018 90.0467ZM166.19 62.9256C158.433 62.9256 152.144 69.3035 152.144 77.1703V172.108C152.145 179.974 158.433 186.351 166.19 186.351C173.947 186.351 180.235 179.974 180.235 172.108V77.1703C180.235 69.3035 173.947 62.9257 166.19 62.9256ZM219.694 87.3309C211.938 87.3311 205.649 93.7089 205.649 101.576V172.097C205.649 179.963 211.938 186.341 219.694 186.341C227.452 186.341 233.74 179.963 233.74 172.097V101.576C233.74 93.7088 227.452 87.3309 219.694 87.3309ZM112.696 90.0467C104.939 90.0467 98.6503 96.4237 98.6502 104.29V170.75C98.6504 178.617 104.939 184.994 112.696 184.994C120.453 184.994 126.741 178.617 126.741 170.75V104.29C126.741 96.4238 120.453 90.0469 112.696 90.0467Z" fill="#29103C"/>
</svg>
